<svg id="通知マーク" xmlns="http://www.w3.org/2000/svg" width="28" height="30" viewBox="0 0 28 30">
  <g id="Group_1045" data-name="Group 1045" transform="translate(22754 17536)">
    <g id="通知マーク-2" data-name="通知マーク" transform="translate(-22754 -17530)">
      <path id="Union_4" data-name="Union 4" d="M-666.761,1930a2.529,2.529,0,0,1-2.482-2.476v-.072h5.075l0,.072a2.55,2.55,0,0,1-2.535,2.477Zm-8.909-3.767a1.31,1.31,0,0,1-.972-.427A1.337,1.337,0,0,1-677,1924.8c0-.007.076-1.16.161-2.17.028-.342.058-.669.089-.945.017-.158.034-.3.055-.426.01-.069.021-.135.037-.212a1.718,1.718,0,0,1,.071-.239c.027-.067.052-.124.076-.175a2.561,2.561,0,0,1,.154-.265,5.086,5.086,0,0,1,.32-.431c.077-.092.156-.183.237-.274.111-.122.223-.245.339-.366.151-.159.306-.317.454-.463.177-.176.342-.335.481-.468l.043-.425c.085-.843.209-2.076.294-2.9a6.6,6.6,0,0,1,.946-2.821,6.5,6.5,0,0,1,1.943-2.006,7.041,7.041,0,0,1,1.652-.812c.135-.047.273-.086.412-.124a2.425,2.425,0,0,1-.157-.861,2.419,2.419,0,0,1,.408-1.351,2.39,2.39,0,0,1,1.05-.873A2.348,2.348,0,0,1-667,1906a2.352,2.352,0,0,1,1.335.413,2.423,2.423,0,0,1,.864,1.061,2.458,2.458,0,0,1,.187.94,2.407,2.407,0,0,1-.161.861,7.036,7.036,0,0,1,.706.228,6.839,6.839,0,0,1,2.324,1.485,6.383,6.383,0,0,1,1.144,1.506,6.637,6.637,0,0,1,.783,2.543c.09.861.221,2.165.307,3.007l.032.32.021.02c.238.228.548.53.852.846.226.234.417.444.584.643.106.124.2.247.3.377.051.072.1.144.147.226a2.149,2.149,0,0,1,.156.318,1.769,1.769,0,0,1,.076.249c.016.079.027.144.037.214s.018.125.027.193c.022.174.039.346.058.532.037.374.072.807.1,1.223.064.82.115,1.587.115,1.6a1.333,1.333,0,0,1-.355,1,1.312,1.312,0,0,1-.972.427Zm6.691-14.216a4.185,4.185,0,0,0-1.428.907,3.774,3.774,0,0,0-.666.877,3.959,3.959,0,0,0-.463,1.517c-.1.989-.263,2.571-.342,3.354l-.047.469a1.354,1.354,0,0,1-.431.863c-.042.037-.254.238-.363.341-.219.209-.506.489-.772.765-.176.183-.343.365-.467.512-.047.057-.088.108-.12.15l0,.017c-.014.1-.03.242-.045.4-.032.312-.064.7-.095,1.08l-.021.275h14.478c-.015-.2-.032-.41-.049-.614-.027-.322-.055-.632-.081-.877-.012-.108-.023-.2-.032-.278-.023-.031-.052-.067-.085-.107-.048-.058-.1-.124-.166-.193-.084-.094-.177-.195-.274-.3-.13-.136-.269-.276-.4-.409-.178-.177-.349-.342-.487-.471-.163-.156-.28-.263-.3-.286a1.358,1.358,0,0,1-.435-.866l-.141-1.4c-.08-.787-.177-1.743-.248-2.42a3.9,3.9,0,0,0-.556-1.678,3.867,3.867,0,0,0-1.151-1.185,4.473,4.473,0,0,0-1.034-.507,4.937,4.937,0,0,0-1.6-.26l-.235,0-.157,0A4.969,4.969,0,0,0-668.979,1912.017Zm2.453-3.007.082.005a.823.823,0,0,0,.2-.277.82.82,0,0,0,.063-.323.828.828,0,0,0-.138-.464.824.824,0,0,0-.364-.3.8.8,0,0,0-.319-.065.806.806,0,0,0-.46.141.844.844,0,0,0-.3.366.868.868,0,0,0-.063.323.819.819,0,0,0,.141.464.734.734,0,0,0,.116.134l.051,0c.106-.006.212-.012.319-.012.065,0,.131,0,.2,0s.127,0,.195,0C-666.711,1909-666.618,1909-666.526,1909.009Z" transform="translate(677 -1906)" fill="#fff"/>
    </g>
    <g id="Group_55" data-name="Group 55" transform="translate(-22743 -17536)">
      <circle id="Ellipse_19" data-name="Ellipse 19" cx="8.5" cy="8.5" r="8.5" transform="translate(0 1)" fill="#ea4343"/>
      <text id="_7" data-name="7" transform="translate(5 14)" fill="#fff" font-size="12" font-family="Helvetica-Bold, Helvetica" font-weight="700"><tspan x="0" y="0">7</tspan></text>
    </g>
  </g>
</svg>
