<svg xmlns="http://www.w3.org/2000/svg" xmlns:xlink="http://www.w3.org/1999/xlink" width="218" height="218" viewBox="0 0 218 218">
  <defs>
    <radialGradient id="radial-gradient" cx="0.274" cy="0.263" r="0.5" gradientUnits="objectBoundingBox">
      <stop offset="0" stop-color="#d8b2cd"/>
      <stop offset="1" stop-color="#d63faa"/>
    </radialGradient>
    <filter id="Path_23" x="0" y="0" width="218" height="218" filterUnits="userSpaceOnUse">
      <feOffset dy="3" input="SourceAlpha"/>
      <feGaussianBlur stdDeviation="3" result="blur"/>
      <feFlood flood-color="#deb5d2"/>
      <feComposite operator="in" in2="blur"/>
      <feComposite in="SourceGraphic"/>
    </filter>
  </defs>
  <g id="_01" data-name="01" transform="translate(-325.146 -324.147)">
    <g transform="matrix(1, 0, 0, 1, 325.15, 324.15)" filter="url(#Path_23)">
      <path id="Path_23-2" data-name="Path 23" d="M100,0A100,100,0,1,1,0,100,100,100,0,0,1,100,0Z" transform="translate(9 6)" fill="url(#radial-gradient)"/>
    </g>
    <g id="menu-業務連絡-white" transform="translate(395.146 409.148)">
      <rect id="Rectangle_517" data-name="Rectangle 517" width="72" height="72" transform="translate(3 -31.002)" fill="rgba(255,255,255,0)"/>
      <path id="Union_38" data-name="Union 38" d="M29.71,36.531,16.523,28.913H8.1A8.082,8.082,0,0,1,0,20.847V16.214A8.074,8.074,0,0,1,8.1,8.17h8.425L29.71.552A3.887,3.887,0,0,1,31.7,0a4.121,4.121,0,0,1,1.99.529,3.976,3.976,0,0,1,2.018,3.438V33.088A4.009,4.009,0,0,1,31.7,37.061,3.906,3.906,0,0,1,29.71,36.531ZM17.622,10.925v15.21l15.387,8.157L32.927,2.778ZM2.772,16.214v4.633c0,2.262,3.063,5.289,5.326,5.289h7.189V10.925H8.1C5.835,10.925,2.772,13.975,2.772,16.214Zm47.041,16.9a1.41,1.41,0,0,1-.109-2,18.751,18.751,0,0,0,0-25.135,1.431,1.431,0,0,1,.109-2.022,1.448,1.448,0,0,1,2.036.1,21.595,21.595,0,0,1,0,28.954,1.432,1.432,0,0,1-2.036.1Zm-5.28-4.732a1.4,1.4,0,0,1-.1-2.009,11.671,11.671,0,0,0,0-15.662,1.414,1.414,0,0,1,.1-2.022,1.46,1.46,0,0,1,2.045.1,14.564,14.564,0,0,1,0,19.5,1.47,1.47,0,0,1-1.072.461A1.424,1.424,0,0,1,44.533,28.379Zm-5.289-4.737a1.415,1.415,0,0,1-.109-2.009,4.591,4.591,0,0,0,0-6.189,1.431,1.431,0,0,1,.109-2.022,1.447,1.447,0,0,1,2.036.1,7.458,7.458,0,0,1,0,10.025,1.458,1.458,0,0,1-2.036.09Z" transform="translate(12.001 -14.002)" fill="#fff"/>
    </g>
    <text id="業務連絡" transform="translate(390.146 476.146)" fill="#fff" font-size="22" font-family="PingFangSC-Regular, PingFang SC"><tspan x="0" y="0">業務連絡</tspan></text>
  </g>
</svg>
