<svg xmlns="http://www.w3.org/2000/svg" xmlns:xlink="http://www.w3.org/1999/xlink" width="218" height="218" viewBox="0 0 218 218">
    <defs>
        <radialGradient id="radial-gradient" cx="0.27" cy="0.284" r="0.5" gradientUnits="objectBoundingBox">
            <stop offset="0" stop-color="#e1e5d9"/>
            <stop offset="1" stop-color="#96c930"/>
        </radialGradient>
        <filter id="Path_1147" x="0" y="0" width="218" height="218" filterUnits="userSpaceOnUse">
            <feOffset dy="3" input="SourceAlpha"/>
            <feGaussianBlur stdDeviation="3" result="blur"/>
            <feFlood flood-opacity="0.161"/>
            <feComposite operator="in" in2="blur"/>
            <feComposite in="SourceGraphic"/>
        </filter>
    </defs>
    <g id="_10" data-name="10" transform="translate(-315.146 -296.146)">
        <g transform="matrix(1, 0, 0, 1, 315.15, 296.15)" filter="url(#Path_1147)">
            <path id="Path_1147-2" data-name="Path 1147" d="M100,0A100,100,0,1,1,0,100,100,100,0,0,1,100,0Z" transform="translate(9 6)" fill="url(#radial-gradient)"/>
        </g>
        <text id="会議" transform="translate(424.146 448.146)" fill="#fff" font-size="22" font-family="PingFangSC-Regular, PingFang SC"><tspan x="-22" y="0">会議</tspan></text>
        <g id="menu-会議-white" transform="translate(-46.754 -267.652)">
            <rect id="Rectangle_515" data-name="Rectangle 515" width="72" height="72" transform="translate(434.9 617.8)" fill="rgba(255,255,255,0)"/>
            <path id="Union_39" data-name="Union 39" d="M-732.824,68.514A3.221,3.221,0,0,1-736,65.337V39.661a3.218,3.218,0,0,1,3.176-3.176h31.1a3.218,3.218,0,0,1,3.176,3.176V65.337a3.219,3.219,0,0,1-3.176,3.177Zm34.277-15.883L-682,40.191v24.75Z" transform="translate(1180.4 600.817)" fill="none" stroke="#fff" stroke-linecap="round" stroke-linejoin="round" stroke-miterlimit="10" stroke-width="3"/>
        </g>
    </g>
</svg>