<svg xmlns="http://www.w3.org/2000/svg" xmlns:xlink="http://www.w3.org/1999/xlink" width="218" height="218" viewBox="0 0 218 218">
    <defs>
        <radialGradient id="radial-gradient" cx="0.27" cy="0.284" r="0.5" gradientUnits="objectBoundingBox">
            <stop offset="0" stop-color="#d9e5da"/>
            <stop offset="1" stop-color="#24d82f"/>
        </radialGradient>
        <filter id="Path_1146" x="0" y="0" width="218" height="218" filterUnits="userSpaceOnUse">
            <feOffset dy="3" input="SourceAlpha"/>
            <feGaussianBlur stdDeviation="3" result="blur"/>
            <feFlood flood-opacity="0.161"/>
            <feComposite operator="in" in2="blur"/>
            <feComposite in="SourceGraphic"/>
        </filter>
    </defs>
    <g id="_09" data-name="09" transform="translate(-315.146 -296.146)">
        <g transform="matrix(1, 0, 0, 1, 315.15, 296.15)" filter="url(#Path_1146)">
            <path id="Path_1146-2" data-name="Path 1146" d="M100,0A100,100,0,1,1,0,100,100,100,0,0,1,100,0Z" transform="translate(9 6)" fill="url(#radial-gradient)"/>
        </g>
        <text id="備品依頼" transform="translate(424.146 448.146)" fill="#fff" font-size="22" font-family="PingFangSC-Regular, PingFang SC"><tspan x="-44" y="0">備品依頼</tspan></text>
        <g id="menu-備品依頼-white" transform="translate(-46.754 -267.654)">
            <rect id="Rectangle_515" data-name="Rectangle 515" width="72" height="72" transform="translate(434.9 617.801)" fill="rgba(255,255,255,0)"/>
            <path id="iconmonstr-picture-15" d="M8.747,2.516l10.185,47.02H55L43.9,2.516H8.747Zm42.686,43.8H21.311L12.583,5.97H41.627ZM14.128,43.968l-3.345,5.567H1L11.436,32.15l2.691,11.818Z" transform="translate(440.9 627.286)" fill="#fff"/>
        </g>
    </g>
</svg>