<svg xmlns="http://www.w3.org/2000/svg" xmlns:xlink="http://www.w3.org/1999/xlink" width="218" height="218" viewBox="0 0 218 218">
  <defs>
    <radialGradient id="radial-gradient" cx="0.328" cy="0.29" r="0.5" gradientUnits="objectBoundingBox">
      <stop offset="0" stop-color="#bfb3de"/>
      <stop offset="1" stop-color="#8963e5"/>
    </radialGradient>
    <filter id="Path_1137" x="0" y="0" width="218" height="218" filterUnits="userSpaceOnUse">
      <feOffset dy="3" input="SourceAlpha"/>
      <feGaussianBlur stdDeviation="3" result="blur"/>
      <feFlood flood-opacity="0.161"/>
      <feComposite operator="in" in2="blur"/>
      <feComposite in="SourceGraphic"/>
    </filter>
  </defs>
  <g id="_04" data-name="04" transform="translate(-315.146 -296.146)">
    <g transform="matrix(1, 0, 0, 1, 315.15, 296.15)" filter="url(#Path_1137)">
      <path id="Path_1137-2" data-name="Path 1137" d="M100,0A100,100,0,1,1,0,100,100,100,0,0,1,100,0Z" transform="translate(9 6)" fill="url(#radial-gradient)"/>
    </g>
    <text id="勤務シフト" transform="translate(424.146 448.146)" fill="#fff" font-size="22" font-family="PingFangSC-Regular, PingFang SC"><tspan x="-55" y="0">勤務シフト</tspan></text>
    <g id="menu-勤務シフト-white" transform="translate(400.146 106.146)">
      <rect id="Rectangle_514" data-name="Rectangle 514" width="72" height="72" transform="translate(-11.999 244)" fill="rgba(255,255,255,0)"/>
      <g id="Group_1196" data-name="Group 1196" transform="translate(-18.998 55)">
        <path id="Subtraction_1" data-name="Subtraction 1" d="M29.805,47.842H0V0H48V24a14.9,14.9,0,0,0-3.146-1.81V17.937H17.949V44.854H26.9a14.9,14.9,0,0,0,2.9,2.982ZM2.988,17.931V44.854H14.961V17.937H2.988ZM17.949,3.14V15.1H44.854V3.146H17.949Zm-14.961,0V15.1H14.961V3.146H2.988Z" transform="translate(15.998 200)" fill="#fff"/>
        <g id="Path_866" data-name="Path 866" transform="translate(-290 97)" fill="#fff">
          <path d="M 345 153.5 C 341.1434936523438 153.5 337.5067749023438 151.9871673583984 334.7597961425781 149.2402038574219 C 332.0128173828125 146.4932250976562 330.5 142.8565216064453 330.5 139 C 330.5 135.1434783935547 332.0128173828125 131.5067749023438 334.7597961425781 128.7597961425781 C 337.5067749023438 126.0128326416016 341.1434936523438 124.5 345 124.5 C 348.8565063476562 124.5 352.4932250976562 126.0128326416016 355.2402038574219 128.7597961425781 C 357.9871826171875 131.5067749023438 359.5 135.1434783935547 359.5 139 C 359.5 142.8673858642578 357.9993896484375 146.5043640136719 355.2745971679688 149.240966796875 C 352.5399475097656 151.9874420166016 348.8910217285156 153.5 345 153.5 Z M 345 125.375 C 341.3751220703125 125.375 337.9575805664062 126.7962417602539 335.3769226074219 129.3769226074219 C 332.7962341308594 131.9575958251953 331.375 135.3751373291016 331.375 139 C 331.375 142.6248626708984 332.7962341308594 146.0424041748047 335.3769226074219 148.6230773925781 C 337.9575805664062 151.2037658691406 341.3751220703125 152.625 345 152.625 C 348.6248779296875 152.625 352.0424194335938 151.2037658691406 354.6230773925781 148.6230773925781 C 357.2037658691406 146.0424041748047 358.625 142.6248626708984 358.625 139 C 358.625 135.3751373291016 357.2037658691406 131.9575958251953 354.6230773925781 129.3769226074219 C 352.0424194335938 126.7962417602539 348.6248779296875 125.375 345 125.375 Z M 350.6244201660156 144.7353363037109 L 344.65625 139.7050170898438 L 344.65625 130.125 L 345.53125 130.125 L 345.53125 139 L 345.53125 139.2332153320312 L 345.7099304199219 139.3831024169922 L 351.1699829101562 143.9624938964844 L 350.6244201660156 144.7353363037109 Z" stroke="none"/>
          <path d="M 345 154 C 336.75 154 330 147.25 330 139 C 330 130.75 336.75 124 345 124 C 353.25 124 360 130.75 360 139 C 360 147.25 353.34375 154 345 154 Z M 345 125.875 C 337.78125 125.875 331.875 131.78125 331.875 139 C 331.875 146.21875 337.78125 152.125 345 152.125 C 352.21875 152.125 358.125 146.21875 358.125 139 C 358.125 131.78125 352.21875 125.875 345 125.875 Z M 350.71875 145.46875 L 344.15625 139.9375 L 344.15625 129.625 L 346.03125 129.625 L 346.03125 139 L 351.84375 143.875 L 350.71875 145.46875 Z" stroke="none" fill="#fff"/>
        </g>
      </g>
    </g>
  </g>
</svg>
