<svg xmlns="http://www.w3.org/2000/svg" xmlns:xlink="http://www.w3.org/1999/xlink" width="218" height="218" viewBox="0 0 218 218">
    <defs>
        <radialGradient id="radial-gradient" cx="0.328" cy="0.29" r="0.5" gradientUnits="objectBoundingBox">
            <stop offset="0" stop-color="#ffe9b2"/>
            <stop offset="1" stop-color="#eab83a"/>
        </radialGradient>
        <filter id="Path_1137" x="0" y="0" width="218" height="218" filterUnits="userSpaceOnUse">
            <feOffset dy="3" input="SourceAlpha"/>
            <feGaussianBlur stdDeviation="3" result="blur"/>
            <feFlood flood-opacity="0.161"/>
            <feComposite operator="in" in2="blur"/>
            <feComposite in="SourceGraphic"/>
        </filter>
    </defs>
    <g id="_11" data-name="11" transform="translate(-315.146 -296.146)">
        <g transform="matrix(1, 0, 0, 1, 315.15, 296.15)" filter="url(#Path_1137)">
            <path id="Path_1137-2" data-name="Path 1137" d="M100,0A100,100,0,1,1,0,100,100,100,0,0,1,100,0Z" transform="translate(9 6)" fill="url(#radial-gradient)"/>
        </g>
        <text id="オーラルケア_製品資料" data-name="オーラルケア
製品資料" transform="translate(424.146 432.146)" fill="#fff" font-size="22" font-family="PingFangSC-Regular, PingFang SC"><tspan x="-66" y="0">オーラルケア</tspan><tspan y="0" font-family="Helvetica"></tspan><tspan x="-44" y="32">製品資料</tspan></text>
        <g id="menu-オーラル製品資料-white" transform="translate(376.146 -307.855)">
            <rect id="Rectangle_516" data-name="Rectangle 516" width="72" height="72" transform="translate(12 642.003)" fill="rgba(255,255,255,0)"/>
            <g id="Group_1195" data-name="Group 1195" transform="translate(-144.355 488.27)">
                <path id="Path_1126" data-name="Path 1126" d="M185.532,172.254a1.237,1.237,0,0,0,0-2.449h-9.517a1.937,1.937,0,0,0-1.674-1.073,2.158,2.158,0,0,0-1.985,2.3v37.958a2.006,2.006,0,1,0,3.969,0V187.057h9.207a1.237,1.237,0,0,0,0-2.449h-9.207v-1.255h9.207a1.237,1.237,0,0,0,0-2.449h-9.207v-1.25h9.207a1.237,1.237,0,0,0,0-2.449h-9.207v-1.253h9.207a1.237,1.237,0,0,0,0-2.449h-9.207v-1.251Z" transform="translate(0)" fill="#fff"/>
                <path id="Path_1127" data-name="Path 1127" d="M303.347,171.661a1.563,1.563,0,0,0-1.215-.615H287.8a1.566,1.566,0,0,0-1.216.615,2.128,2.128,0,0,0-.432,1.455l2.205,31.669A1.774,1.774,0,0,0,290,206.547h.109v3.359a1.691,1.691,0,0,0-1.19,1.684,1.656,1.656,0,0,0,1.521,1.763h8.49a1.655,1.655,0,0,0,1.52-1.763,1.821,1.821,0,0,0-.638-1.4v-3.646h.11a1.774,1.774,0,0,0,1.648-1.762l2.205-31.669A2.124,2.124,0,0,0,303.347,171.661Zm-6.838,37.694H293.42v-2.808h3.089Zm1.891-6.639h-6.871l-1.938-27.839h10.747Z" transform="translate(-92.144 -1.982)" fill="#fff"/>
            </g>
        </g>
    </g>
</svg>