<svg xmlns="http://www.w3.org/2000/svg" xmlns:xlink="http://www.w3.org/1999/xlink" width="218" height="218" viewBox="0 0 218 218">
    <defs>
        <radialGradient id="radial-gradient" cx="0.237" cy="0.244" r="0.5" gradientUnits="objectBoundingBox">
            <stop offset="0" stop-color="#ffdde9"/>
            <stop offset="1" stop-color="#e0286a"/>
        </radialGradient>
        <filter id="Path_1135" x="0" y="0" width="218" height="218" filterUnits="userSpaceOnUse">
            <feOffset dy="3" input="SourceAlpha"/>
            <feGaussianBlur stdDeviation="3" result="blur"/>
            <feFlood flood-opacity="0.161"/>
            <feComposite operator="in" in2="blur"/>
            <feComposite in="SourceGraphic"/>
        </filter>
    </defs>
    <g id="_16" data-name="16" transform="translate(-315.146 -296.146)">
        <g transform="matrix(1, 0, 0, 1, 315.15, 296.15)" filter="url(#Path_1135)">
            <path id="Path_1135-2" data-name="Path 1135" d="M100,0A100,100,0,1,1,0,100,100,100,0,0,1,100,0Z" transform="translate(9 6)" fill="url(#radial-gradient)"/>
        </g>
        <text id="非接触_接客システム" data-name="非接触
接客システム" transform="translate(424.146 432.146)" fill="#fff" font-size="22" font-family="PingFangSC-Regular, PingFang SC"><tspan x="-33" y="0">非接触</tspan><tspan y="0" font-family="Helvetica"></tspan><tspan x="-66" y="32">接客システム</tspan></text>
        <g id="menu-非接触接客システム-white" transform="translate(-46.754 -283.654)">
            <rect id="Rectangle_515" data-name="Rectangle 515" width="72" height="72" transform="translate(434.9 617.801)" fill="rgba(255,255,255,0)"/>
            <g id="Group_1193" data-name="Group 1193" transform="translate(479.4 235.3)">
                <path id="Path_1064" data-name="Path 1064" d="M-2177.547-1043.487v-7.66a6.639,6.639,0,0,0-6.721-6.564,6.639,6.639,0,0,0-6.723,6.564v7.66h-2.344v-7.66a9.042,9.042,0,0,1,9.067-8.91,9.041,9.041,0,0,1,9.065,8.91v7.66Zm-12.974-23.6a5.77,5.77,0,0,1,5.783-5.783,5.771,5.771,0,0,1,5.784,5.783,5.675,5.675,0,0,1-5.784,5.784A5.77,5.77,0,0,1-2190.521-1067.09Zm2.5,0a3.469,3.469,0,0,0,3.438,3.438,3.47,3.47,0,0,0,3.44-3.438,3.47,3.47,0,0,0-3.44-3.44A3.47,3.47,0,0,0-2188.021-1067.09Z" transform="translate(2176.336 1473.877)" fill="#fff"/>
                <path id="Path_1065" data-name="Path 1065" d="M-710.5,80.79h0v0h0Zm-22.313-7.649A3.2,3.2,0,0,1-736,69.953V39.672a3.2,3.2,0,0,1,3.187-3.187h44.626A3.2,3.2,0,0,1-685,39.672V69.953a3.2,3.2,0,0,1-3.187,3.187Z" transform="translate(702.5 360.018)" fill="none" stroke="#fff" stroke-width="3"/>
            </g>
        </g>
    </g>
</svg>