<svg xmlns="http://www.w3.org/2000/svg" xmlns:xlink="http://www.w3.org/1999/xlink" width="218" height="218" viewBox="0 0 218 218">
    <defs>
        <radialGradient id="radial-gradient" cx="0.244" cy="0.232" r="0.405" gradientUnits="objectBoundingBox">
            <stop offset="0" stop-color="#efd9d7"/>
            <stop offset="1" stop-color="#dc3121"/>
        </radialGradient>
        <filter id="Path_1150" x="0" y="0" width="218" height="218" filterUnits="userSpaceOnUse">
            <feOffset dy="3" input="SourceAlpha"/>
            <feGaussianBlur stdDeviation="3" result="blur"/>
            <feFlood flood-opacity="0.161"/>
            <feComposite operator="in" in2="blur"/>
            <feComposite in="SourceGraphic"/>
        </filter>
    </defs>
    <g id="_14" data-name="14" transform="translate(-315.146 -296.146)">
        <g transform="matrix(1, 0, 0, 1, 315.15, 296.15)" filter="url(#Path_1150)">
            <path id="Path_1150-2" data-name="Path 1150" d="M100,0A100,100,0,1,1,0,100,100,100,0,0,1,100,0Z" transform="translate(9 6)" fill="url(#radial-gradient)"/>
        </g>
        <text id="eラーニング" transform="translate(424.146 448.146)" fill="#fff" font-size="22" font-family="Helvetica"><tspan x="-61.118" y="0">e</tspan><tspan y="0" font-family="PingFangSC-Regular, PingFang SC">ラーニング</tspan></text>
        <g id="menu-eラーニング-white" transform="translate(-46.754 -267.654)">
            <rect id="Rectangle_515" data-name="Rectangle 515" width="72" height="72" transform="translate(434.9 617.801)" fill="rgba(255,255,255,0)"/>
            <path id="Path_1122" data-name="Path 1122" d="M63.769,227.131A1.942,1.942,0,0,0,61.8,229.1v21.415a1.942,1.942,0,0,0,1.969,1.969h8.369a1.942,1.942,0,0,0,1.969-1.969V229.1a1.942,1.942,0,0,0-1.969-1.969H67.462a18.281,18.281,0,0,1,36.431,0H99.462a1.942,1.942,0,0,0-1.969,1.969v21.415a1.942,1.942,0,0,0,1.969,1.969h8.369a1.942,1.942,0,0,0,1.969-1.969V229.1a1.942,1.942,0,0,0-1.969-1.969h-.246A22.029,22.029,0,0,0,85.677,206.7c-11.323,0-20.923,9.108-21.908,20.431Zm42.585,21.415h-4.677V230.823h4.677Zm-35.938,0H65.738V230.823h4.677Z" transform="translate(385.1 424.102)" fill="#fff" fill-rule="evenodd"/>
        </g>
    </g>
</svg>