<svg xmlns="http://www.w3.org/2000/svg" xmlns:xlink="http://www.w3.org/1999/xlink" width="218" height="218" viewBox="0 0 218 218">
    <defs>
        <radialGradient id="radial-gradient" cx="0.237" cy="0.244" r="0.5" gradientUnits="objectBoundingBox">
            <stop offset="0" stop-color="#ffdde9"/>
            <stop offset="1" stop-color="#e02890"/>
        </radialGradient>
        <filter id="Path_1135" x="0" y="0" width="218" height="218" filterUnits="userSpaceOnUse">
            <feOffset dy="3" input="SourceAlpha"/>
            <feGaussianBlur stdDeviation="3" result="blur"/>
            <feFlood flood-opacity="0.161"/>
            <feComposite operator="in" in2="blur"/>
            <feComposite in="SourceGraphic"/>
        </filter>
    </defs>
    <g id="_16" data-name="16" transform="translate(-315.146 -296.146)">
        <g transform="matrix(1, 0, 0, 1, 315.15, 296.15)" filter="url(#Path_1135)">
            <path id="Path_1135-2" data-name="Path 1135" d="M100,0A100,100,0,1,1,0,100,100,100,0,0,1,100,0Z" transform="translate(9 6)" fill="url(#radial-gradient)"/>
        </g>
        <text id="サンクス_Bポイント" data-name="サンクス
Bポイント" transform="translate(424.146 432.146)" fill="#fff" font-size="22" font-family="PingFangSC-Regular, PingFang SC"><tspan x="-44" y="0">サンクス</tspan><tspan y="0" font-family="Helvetica"></tspan><tspan font-family="Helvetica"><tspan x="-51.337" y="32">B</tspan><tspan y="32" font-family="PingFangSC-Regular, PingFang SC">ポイント</tspan></tspan></text>
        <g id="Group_1212" data-name="Group 1212" transform="translate(-3552.854 1604.146)">
            <rect id="Rectangle_518" data-name="Rectangle 518" width="72" height="72" transform="translate(3941 -1270)" fill="rgba(255,255,255,0)"/>
            <g id="Group_1212-2" data-name="Group 1212" transform="translate(-16.38 -17.033)">
                <circle id="Ellipse_79" data-name="Ellipse 79" cx="24" cy="24" r="24" transform="translate(3969.38 -1240.967)" fill="none" stroke="#fff" stroke-width="3"/>
                <text id="B" transform="translate(3983.88 -1206.467)" fill="#fff" font-size="30" font-family="Helvetica"><tspan x="0" y="0">B</tspan></text>
            </g>
        </g>
    </g>
</svg>