<svg xmlns="http://www.w3.org/2000/svg" xmlns:xlink="http://www.w3.org/1999/xlink" width="218" height="218" viewBox="0 0 218 218">
    <defs>
        <radialGradient id="radial-gradient" cx="0.286" cy="0.338" r="0.466" gradientUnits="objectBoundingBox">
            <stop offset="0" stop-color="#abc4dc"/>
            <stop offset="1" stop-color="#4388c9"/>
        </radialGradient>
        <filter id="Path_1138" x="0" y="0" width="218" height="218" filterUnits="userSpaceOnUse">
            <feOffset dy="3" input="SourceAlpha"/>
            <feGaussianBlur stdDeviation="3" result="blur"/>
            <feFlood flood-opacity="0.161"/>
            <feComposite operator="in" in2="blur"/>
            <feComposite in="SourceGraphic"/>
        </filter>
    </defs>
    <g id="_05" data-name="05" transform="translate(-315.146 -296.146)">
        <g transform="matrix(1, 0, 0, 1, 315.15, 296.15)" filter="url(#Path_1138)">
            <path id="Path_1138-2" data-name="Path 1138" d="M100,0A100,100,0,1,1,0,100,100,100,0,0,1,100,0Z" transform="translate(9 6)" fill="url(#radial-gradient)"/>
        </g>
        <text id="規則関係" transform="translate(424.146 448.146)" fill="#fff" font-size="22" font-family="PingFangSC-Regular, PingFang SC"><tspan x="-44" y="0">規則関係</tspan></text>
        <g id="menu-規則関係-white" transform="translate(-27.754 -261.654)">
            <rect id="Rectangle_515" data-name="Rectangle 515" width="72" height="72" transform="translate(415.9 611.801)" fill="rgba(255,255,255,0)"/>
            <g id="Group_1194" data-name="Group 1194" transform="translate(461.9 152.801)">
                <g id="Subtraction_2" data-name="Subtraction 2" transform="translate(-20856 -20152)" fill="#fff">
                    <path d="M 20860.5 20673.48046875 L 20825.5 20673.48046875 L 20825.5 20629.50390625 L 20827.49609375 20629.50390625 L 20827.49609375 20670.98828125 L 20827.49609375 20671.48828125 L 20827.99609375 20671.48828125 L 20860.5 20671.48828125 L 20860.5 20673.48046875 Z" stroke="none"/>
                    <path d="M 20860 20672.98046875 L 20860 20671.98828125 L 20826.99609375 20671.98828125 L 20826.99609375 20630.00390625 L 20826 20630.00390625 L 20826 20672.98046875 L 20860 20672.98046875 M 20861 20673.98046875 L 20825 20673.98046875 L 20825 20629.00390625 L 20827.99609375 20629.00390625 L 20827.99609375 20670.98828125 L 20861 20670.98828125 L 20861 20673.98046875 Z" stroke="none" fill="#fff"/>
                </g>
                <path id="Path_857" data-name="Path 857" d="M300,209.5V247H264V199h26.85L300,209.5Zm-10.5-7.05v7.05h5.85ZM297,212.5H286.5V202H267v42h30ZM291,229H273v-3h18Zm0,7.5H273v-3h18Zm-18-18h18v3H273Z" transform="translate(-289 269)" fill="#fff"/>
            </g>
        </g>
    </g>
</svg>