<svg xmlns="http://www.w3.org/2000/svg" xmlns:xlink="http://www.w3.org/1999/xlink" width="218" height="218" viewBox="0 0 218 218">
    <defs>
        <radialGradient id="radial-gradient" cx="0.27" cy="0.284" r="0.5" gradientUnits="objectBoundingBox">
            <stop offset="0" stop-color="#bae6e6"/>
            <stop offset="1" stop-color="#27c6c3"/>
        </radialGradient>
        <filter id="Path_1139" x="0" y="0" width="218" height="218" filterUnits="userSpaceOnUse">
            <feOffset dy="3" input="SourceAlpha"/>
            <feGaussianBlur stdDeviation="3" result="blur"/>
            <feFlood flood-opacity="0.161"/>
            <feComposite operator="in" in2="blur"/>
            <feComposite in="SourceGraphic"/>
        </filter>
    </defs>
    <g id="_06" data-name="06" transform="translate(-315.146 -296.146)">
        <g transform="matrix(1, 0, 0, 1, 315.15, 296.15)" filter="url(#Path_1139)">
            <path id="Path_1139-2" data-name="Path 1139" d="M100,0A100,100,0,1,1,0,100,100,100,0,0,1,100,0Z" transform="translate(9 6)" fill="url(#radial-gradient)"/>
        </g>
        <text id="通信販売" transform="translate(424.146 448.146)" fill="#fff" font-size="22" font-family="PingFangSC-Regular, PingFang SC"><tspan x="-44" y="0">通信販売</tspan></text>
        <g id="menu-通信販売-white" transform="translate(-22.754 -315.654)">
            <rect id="Rectangle_515" data-name="Rectangle 515" width="72" height="72" transform="translate(410.9 665.801)" fill="rgba(255,255,255,0)"/>
            <g id="Group_1191" data-name="Group 1191" transform="translate(-12.999 53.998)">
                <path id="Path_60" data-name="Path 60" d="M478.9,657.048h-39l1.818-27.849h35.368Z" transform="translate(0 16.807)" fill="none" stroke="#fff" stroke-linecap="round" stroke-linejoin="round" stroke-miterlimit="10" stroke-width="3"/>
                <path id="Path_61" data-name="Path 61" d="M478.7,652V637a16.2,16.2,0,1,0-32.4,0v15" transform="translate(-3.102 0.002)" fill="none" stroke="#fff" stroke-linecap="round" stroke-linejoin="round" stroke-miterlimit="10" stroke-width="3"/>
            </g>
        </g>
    </g>
</svg>