<svg xmlns="http://www.w3.org/2000/svg" xmlns:xlink="http://www.w3.org/1999/xlink" width="218" height="218" viewBox="0 0 218 218">
    <defs>
        <radialGradient id="radial-gradient" cx="0.27" cy="0.284" r="0.5" gradientUnits="objectBoundingBox">
            <stop offset="0" stop-color="#c5e2dd"/>
            <stop offset="1" stop-color="#27c6a6"/>
        </radialGradient>
        <filter id="Path_1144" x="0" y="0" width="218" height="218" filterUnits="userSpaceOnUse">
            <feOffset dy="3" input="SourceAlpha"/>
            <feGaussianBlur stdDeviation="3" result="blur"/>
            <feFlood flood-opacity="0.161"/>
            <feComposite operator="in" in2="blur"/>
            <feComposite in="SourceGraphic"/>
        </filter>
    </defs>
    <g id="_07" data-name="07" transform="translate(-315.146 -296.146)">
        <g transform="matrix(1, 0, 0, 1, 315.15, 296.15)" filter="url(#Path_1144)">
            <path id="Path_1144-2" data-name="Path 1144" d="M100,0A100,100,0,1,1,0,100,100,100,0,0,1,100,0Z" transform="translate(9 6)" fill="url(#radial-gradient)"/>
        </g>
        <text id="企画進行状況" transform="translate(424.146 448.146)" fill="#fff" font-size="22" font-family="PingFangSC-Regular, PingFang SC"><tspan x="-66" y="0">企画進行状況</tspan></text>
        <g id="menu-企画進行状況-white" transform="translate(-64.754 -265.654)">
            <rect id="Rectangle_515" data-name="Rectangle 515" width="72" height="72" transform="translate(452.9 615.801)" fill="rgba(255,255,255,0)"/>
            <g id="Group_1192" data-name="Group 1192" transform="translate(482.405 619.311)">
                <path id="Path_561" data-name="Path 561" d="M751.529,1818.455l-12.642,8.587L730.3,1814.4" transform="translate(-754.805 -1791.727)" fill="none" stroke="#fff" stroke-linecap="round" stroke-linejoin="round" stroke-miterlimit="10" stroke-width="3"/>
                <path id="Path_562" data-name="Path 562" d="M733.9,1828.4a24.071,24.071,0,1,1,4.078,13.332" transform="translate(-749.105 -1795.91)" fill="none" stroke="#fff" stroke-linecap="round" stroke-linejoin="round" stroke-miterlimit="10" stroke-width="3"/>
                <path id="Path_563" data-name="Path 563" d="M749.2,1810.1v16.021l8.01,9.512" transform="translate(-741.904 -1790.377)" fill="none" stroke="#fff" stroke-linecap="round" stroke-linejoin="round" stroke-miterlimit="10" stroke-width="3"/>
            </g>
        </g>
    </g>
</svg>