<svg xmlns="http://www.w3.org/2000/svg" xmlns:xlink="http://www.w3.org/1999/xlink" width="218" height="218" viewBox="0 0 218 218">
    <defs>
        <radialGradient id="radial-gradient" cx="0.262" cy="0.291" r="0.5" gradientUnits="objectBoundingBox">
            <stop offset="0" stop-color="#cbabd5"/>
            <stop offset="1" stop-color="#b857d5"/>
        </radialGradient>
        <filter id="Path_23" x="0" y="0" width="218" height="218" filterUnits="userSpaceOnUse">
            <feOffset dy="3" input="SourceAlpha"/>
            <feGaussianBlur stdDeviation="3" result="blur"/>
            <feFlood flood-opacity="0.161"/>
            <feComposite operator="in" in2="blur"/>
            <feComposite in="SourceGraphic"/>
        </filter>
    </defs>
    <g id="_03" data-name="03" transform="translate(-315.146 -296.146)">
        <g transform="matrix(1, 0, 0, 1, 315.15, 296.15)" filter="url(#Path_23)">
            <path id="Path_23-2" data-name="Path 23" d="M100,0A100,100,0,1,1,0,100,100,100,0,0,1,100,0Z" transform="translate(9 6)" opacity="0.997" fill="url(#radial-gradient)"/>
        </g>
        <text id="報告" transform="translate(402.146 448.146)" fill="#fff" font-size="22" font-family="PingFangSC-Regular, PingFang SC"><tspan x="0" y="0">報告</tspan></text>
        <g id="menu-報告-white" transform="translate(376.146 349.146)">
            <rect id="Rectangle_513" data-name="Rectangle 513" width="72" height="72" transform="translate(12 1)" fill="rgba(255,255,255,0)"/>
            <path id="Path_1117" data-name="Path 1117" d="M165.117,85.788a24.013,24.013,0,0,1-32.668,9.334,6.1,6.1,0,0,0-1.355-.753l-7.377,2.559,1.957-7.377a24.033,24.033,0,1,1,39.442-3.764ZM154.278,55.68a21.063,21.063,0,1,0,8.129,28.6A21.055,21.055,0,0,0,154.278,55.68ZM135.009,80.068h18.065v3.011H135.009Zm0-7.527h18.065v3.011H135.009Zm0-7.527h18.065v3.011H135.009Z" transform="translate(-96.09 -37.08)" fill="#fff"/>
        </g>
    </g>
</svg>